<?xml version="1.0" standalone="no"?><!DOCTYPE svg PUBLIC "-//W3C//DTD SVG 1.1//EN" "http://www.w3.org/Graphics/SVG/1.1/DTD/svg11.dtd"><svg t="1523977739378" class="icon" style="" viewBox="0 0 1186 1024" version="1.1" xmlns="http://www.w3.org/2000/svg" p-id="3118" xmlns:xlink="http://www.w3.org/1999/xlink" width="55.59375" height="48"><defs><style type="text/css"></style></defs><path d="M592.979172 99.298087C764.545352 247.565155 1107.6777 544.099291 1107.6777 544.099291 1127.383121 561.128658 1157.162536 558.959296 1174.191903 539.253885 1191.221271 519.548473 1189.051915 489.76905 1169.346507 472.739683L644.064741 18.792487C615.090477-6.247004 570.577796-6.245391 541.605404 18.792487L16.323639 472.739683C-3.381769 489.76905-5.551125 519.548473 11.478242 539.253885 28.50761 558.959296 58.287024 561.128658 77.992446 544.099291 77.992446 544.099291 590.438069 97.102073 592.979172 99.298087L592.979172 99.298087ZM249.34468 1017.263247 451.27768 1017.263247C481.089363 1017.263247 505.25651 993.204509 505.25651 963.284413L505.25651 707.372587 680.4121 707.372587 680.4121 963.284413C680.4121 993.0961 704.63663 1017.263247 734.344069 1017.263247L949.844297 1017.263247C979.630098 1017.263247 1003.776266 993.112147 1003.776266 963.461138L1003.776266 545.711842C1003.776266 519.655814 982.610236 498.53323 956.618992 498.53323 930.574743 498.53323 909.461718 519.580059 909.461718 545.574717L909.461718 922.948698 774.726648 922.948698 774.726648 667.036873C774.726648 637.225185 750.648346 613.058039 720.758247 613.058039L464.910363 613.058039C435.104446 613.058039 410.941961 637.116776 410.941961 667.036873L410.941961 922.948698 289.680399 922.948698 289.680399 545.574717C289.680399 519.59442 268.514368 498.53323 242.523125 498.53323 216.478876 498.53323 195.36585 519.672553 195.36585 545.711842L195.36585 963.461138C195.36585 993.175222 219.424589 1017.263247 249.34468 1017.263247Z" p-id="3119" fill="#999999"></path></svg>