<?xml version="1.0" standalone="no"?><!DOCTYPE svg PUBLIC "-//W3C//DTD SVG 1.1//EN" "http://www.w3.org/Graphics/SVG/1.1/DTD/svg11.dtd"><svg t="1523981905290" class="icon" style="" viewBox="0 0 1024 1024" version="1.1" xmlns="http://www.w3.org/2000/svg" p-id="7383" xmlns:xlink="http://www.w3.org/1999/xlink" width="48" height="48"><defs><style type="text/css"></style></defs><path d="M927.692322 664.047995c0-73.211896-31.369799-139.077415-81.152127-185.411298V413.724415l47.798039 40.252004a20.215592 20.215592 0 0 0 13.056586 4.765162 20.272929 20.272929 0 0 0 15.533364-7.221463c7.212248-8.568896 6.112595-21.367463-2.456301-28.588926l-359.19945-302.486442c-22.843905-19.24802-55.901067-19.168157-78.626201 0.178156L339.342218 242.421233v-75.428608c0-33.561937-27.301902-60.863839-60.86384-60.863839s-60.863839 27.301902-60.863839 60.863839v178.894268l-114.575839 97.400163c-8.539204 7.251156-9.579471 20.059961-2.318077 28.588926 4.011583 4.725231 9.717696 7.151839 15.46374 7.151839 4.646392 0 9.312237-1.584974 13.12621-4.833763l47.728415-40.573504v388.16107c0 33.561937 27.301902 60.863839 60.863839 60.86384h308.258083c37.611404 22.099541 81.244277 35.00152 127.932424 35.00152 51.93044 0 100.231206-15.743261 140.479114-42.631514 5.333419-2.907834 10.294143-6.384949 14.513574-10.690386 59.85736-46.429104 98.6063-118.831107 98.6063-200.277089zM217.614539 821.782648V399.127906l33.423713-28.413842c0.21092-0.178156 0.28976-0.438223 0.491465-0.62457 1.08839-0.999312 1.861424-2.223879 2.710224-3.438207 0.680884-0.976787 1.477467-1.856304 1.966884-2.917049 0.506823-1.08839 0.666549-2.294527 0.974739-3.478139 0.361432-1.402723 0.790439-2.750156 0.846753-4.193834 0.011263-0.281568 0.161774-0.518086 0.161774-0.800678V166.993649c0-11.183899 9.103364-20.288288 20.288287-20.288288 11.183899 0 20.288288 9.103364 20.288288 20.288288v119.290831c0 0.989073 0.425936 1.837874 0.563137 2.789064 0.196586 1.412962 0.337882 2.787016 0.837538 4.146735 0.508871 1.384293 1.303406 2.546403 2.087702 3.768922 0.502728 0.793511 0.719791 1.695554 1.34641 2.430704 0.17918 0.21092 0.438223 0.290783 0.62457 0.492489 0.998288 1.086342 2.218759 1.856304 3.431039 2.704081 0.98293 0.684979 1.868591 1.485658 2.937527 1.97917 1.065865 0.49556 2.246404 0.649143 3.402371 0.954261 1.431392 0.374742 2.808517 0.809893 4.282913 0.865184 0.272353 0.011263 0.50068 0.155631 0.775081 0.15563 0.959381 0 1.78156-0.417745 2.706129-0.545731 1.449822-0.195562 2.859712-0.345049 4.253219-0.85904 1.364839-0.503752 2.508519-1.291119 3.717728-2.063129 0.802726-0.508871 1.715008-0.731054 2.459373-1.365863l176.736941-150.208072c7.56856-6.449454 18.593757-6.458669 26.202249-0.049147l271.135073 228.326428c-0.037884 0.51399-0.297951 0.952213-0.29795 1.476442v66.563809c-38.481706-23.561649-83.53778-37.397411-131.871311-37.397411-139.836114 0-253.598989 113.762875-253.598989 253.600013 0 69.328299 28.01555 132.196906 73.2549 178.021917H237.901803c-11.183899 0-20.287264-9.104388-20.287264-20.288288z m243.455357-157.734653c0-117.458077 95.565361-213.023437 213.023438-213.023438s213.023437 95.565361 213.023437 213.023438-95.565361 213.023437-213.023437 213.023437-213.023437-95.565361-213.023438-213.023437z" fill="#ff6600" p-id="7384"></path><path d="M278.478378 471.309773h142.015967v142.015967H278.478378zM757.781624 639.243349H694.381621v-12.507783l76.763755-67.167902c8.430672-7.380165 9.282544-20.188971 1.902379-28.628857-7.399619-8.430672-20.188971-9.291759-28.628858-1.902379l-70.32454 61.53346-70.324539-61.53346c-8.439887-7.369927-21.258931-6.508839-28.628858 1.902379-7.380165 8.439887-6.528293 21.248692 1.902379 28.628857l76.763755 67.167902v12.507783h-58.327676c-11.204377 0-20.288288 9.083911-20.288287 20.288287s9.083911 20.288288 20.288287 20.288288h58.327676v20.288288h-38.040412c-11.204377 0-20.288288 9.083911-20.288288 20.288288s9.083911 20.288288 20.288288 20.288287h38.040412v43.111716c0 11.204377 9.083911 20.288288 20.288287 20.288288 11.204377 0 20.288288-9.083911 20.288288-20.288288v-43.111716h43.111716c11.204377 0 20.288288-9.083911 20.288287-20.288287s-9.083911-20.288288-20.288287-20.288288H694.381621v-20.288288h63.400003c11.204377 0 20.288288-9.083911 20.288288-20.288288s-9.084934-20.288288-20.288288-20.288287z" fill="#ff6600" p-id="7385"></path></svg>