<?xml version="1.0" standalone="no"?><!DOCTYPE svg PUBLIC "-//W3C//DTD SVG 1.1//EN" "http://www.w3.org/Graphics/SVG/1.1/DTD/svg11.dtd"><svg t="1523989701731" class="icon" style="" viewBox="0 0 1024 1024" version="1.1" xmlns="http://www.w3.org/2000/svg" p-id="9667" xmlns:xlink="http://www.w3.org/1999/xlink" width="48" height="48"><defs><style type="text/css"></style></defs><path d="M681.087232 1024l-170.666667 0L339.753899 1024c-136.518709 0-209.903913-1.69643-255.985376-10.2517C47.93876 1006.933333 0.146244 989.866667 0.146244 928.429592c0-112.607826 271.355613-158.703913 360.09643-170.666667-1.69643-3.378235-3.407484-10.237075-6.814967-20.459526-59.726021-37.526193-107.518538-93.859354-138.229763-158.718538-29.014796-20.47415-52.925678-52.925678-61.4517-81.92585-10.237075-37.540817 0-78.518366 29.014796-104.09643l0-11.962753c-1.711054-104.09643-5.133162-220.140988 71.659526-298.64473 54.607484-54.607484 138.244387-81.92585 257.69643-81.92585 119.466667 0 203.074322 27.303742 257.69643 81.92585 76.807312 76.792688 73.385204 194.5483 71.659526 298.64473l0 11.962753c27.318366 23.881634 39.266495 64.859183 27.318366 104.09643-8.55527 28.985547-32.422279 59.711397-61.437075 81.92585-29.014796 64.859183-78.503742 121.177721-138.229763 158.718538-5.133162 10.222451-6.829592 17.081291-6.829592 20.459526 90.451871 11.962753 360.067181 58.05884 360.067181 170.666667C1020.651014 1024 926.820908 1024 681.087232 1024L681.087232 1024M510.405941 950.600171l165.548129 0c225.27415 0 271.326364-5.118538 271.326364-34.104085 0-30.755099-119.422793-87.044387-313.985718-109.244216l-10.2517-1.711054-6.829592-6.829592c-11.91888-11.933505-18.777721-25.578063-18.777721-42.64473 0-15.370237 5.147786-34.147958 17.066667-58.044216l3.422108-8.526021 6.829592-5.147786c52.89643-32.407655 95.555784-80.170923 121.163096-138.215139l3.422108-8.540646 6.829592-5.103913c18.748472-11.933505 37.511568-34.133333 42.659354-51.2 5.118538-18.777721-3.422108-37.540817-15.370237-44.385033l-15.355613-8.526021 0-42.659354c1.69643-92.1483 3.407484-189.444387-52.925678-247.44473-39.237247-40.962925-105.792859-61.4517-204.770751-61.4517-98.992516 0-167.244559 20.488775-208.192859 61.4517-56.318538 58.014967-54.607484 153.6-52.89643 247.44473l0 42.659354-15.355613 8.526021c-11.948129 6.829592-20.488775 25.607312-15.370237 44.385033 5.118538 17.066667 23.881634 39.266495 42.673979 51.2l6.814967 5.103913 3.422108 8.540646c23.881634 58.044216 68.252042 107.533162 121.163096 138.215139l6.814967 5.147786 3.407484 8.526021c11.948129 23.896258 17.081291 42.673979 17.081291 58.044216 0 17.066667-6.829592 32.436904-18.777721 42.64473l-6.829592 6.829592-8.526021 1.711054c-194.562925 23.896258-314.014967 78.489117-314.014967 109.244216 0 11.91888 0 18.733847 34.118709 25.592688 40.962925 8.511397 110.940646 8.511397 237.222279 8.511397L510.405941 950.600171 510.405941 950.600171M510.405941 964.288603 510.405941 964.288603z" p-id="9668" fill="#ff6600"></path></svg>