<?xml version="1.0" standalone="no"?><!DOCTYPE svg PUBLIC "-//W3C//DTD SVG 1.1//EN" "http://www.w3.org/Graphics/SVG/1.1/DTD/svg11.dtd"><svg t="1523981749949" class="icon" style="" viewBox="0 0 1024 1024" version="1.1" xmlns="http://www.w3.org/2000/svg" p-id="5199" xmlns:xlink="http://www.w3.org/1999/xlink" width="48" height="48"><defs><style type="text/css"></style></defs><path d="M254.842641 377.833301h313.060065c12.348236 0 22.361287-10.011005 22.361287-22.36538 0-12.348236-10.013051-22.35924-22.361287-22.359241h-313.060065c-12.348236 0-22.35924 10.011005-22.359241 22.359241 0 12.354376 10.011005 22.36538 22.359241 22.36538z m111.808482-223.616964h89.445148c12.348236 0 22.361287-10.006911 22.361287-22.361287 0-12.348236-10.013051-22.35924-22.361287-22.35924h-89.445148c-12.350283 0-22.361287 10.011005-22.361288 22.35924 0 12.354376 10.011005 22.361287 22.361288 22.361287z m-89.445149 44.724621c12.348236 0 22.361287-10.011005 22.361287-22.35924v-89.447195c0-12.348236-10.013051-22.35924-22.361287-22.359241-12.350283 0-22.363334 10.011005-22.363333 22.359241v89.447195c0 12.348236 10.013051 22.35924 22.363333 22.35924z m447.225741 313.058019c-123.498732 0-223.61287 100.113115-223.61287 223.61287s100.113115 223.61287 223.61287 223.612871c123.496685 0 223.61287-100.114139 223.612871-223.612871s-100.116185-223.61287-223.612871-223.61287z m0 402.505213c-98.79919 0-178.890296-80.096223-178.890296-178.892343s80.091106-178.892343 178.890296-178.892343 178.890296 80.096223 178.890297 178.892343-80.09213 178.892343-178.890297 178.892343z m-89.445148-760.287853h44.722574c12.350283 0 22.361287 10.011005 22.361287 22.365381v268.330328c0 12.350283 10.011005 22.361287 22.361287 22.361287s22.361287-10.011005 22.361287-22.361287V176.581718c0-36.664038-29.418007-66.440202-65.932641-67.057256a22.569018 22.569018 0 0 0-1.15122-0.028652h-44.722574c-12.350283 0-22.363334 10.011005-22.363334 22.35924 0 12.354376 10.013051 22.361287 22.363334 22.361287z m-89.445148 44.724621c12.350283 0 22.361287-10.011005 22.361287-22.35924v-89.447195c0-12.348236-10.011005-22.35924-22.361287-22.359241s-22.361287 10.011005-22.361287 22.359241v89.447195c0 12.348236 10.011005 22.35924 22.361287 22.35924z m268.335444 536.670889h-67.083861v-89.445148c0-12.348236-10.011005-22.361287-22.361287-22.361287s-22.361287 10.013051-22.361287 22.361287v111.806435c0 12.348236 10.011005 22.35924 22.361287 22.359241h89.445148c12.350283 0 22.361287-10.011005 22.361288-22.359241 0-12.350283-10.012028-22.361287-22.361288-22.361287zM254.842641 556.719504h201.25363c12.348236 0 22.361287-10.011005 22.361287-22.35924 0-12.348236-10.013051-22.361287-22.361287-22.361287h-201.25363c-12.348236 0-22.35924 10.013051-22.359241 22.361287 0 12.347213 10.011005 22.35924 22.359241 22.35924z m223.614917 313.059042h-335.419306c-12.350283 0-22.361287-10.013051-22.361287-22.361287V176.581718c0-12.354376 10.011005-22.36538 22.361287-22.365381h44.722574c12.350283 0 22.361287-10.006911 22.361287-22.361287 0-12.348236-10.011005-22.35924-22.361287-22.35924h-44.722574c-37.050848 0-67.083861 30.036084-67.083861 67.085908v670.835541c0 37.050848 30.033014 67.085908 67.083861 67.085908h335.419306c12.350283 0 22.361287-10.011005 22.361287-22.36538 0-12.347213-10.011005-22.35924-22.361287-22.359241zM254.842641 735.611847h89.447194c12.350283 0 22.361287-10.011005 22.361288-22.35924 0-12.354376-10.011005-22.36538-22.361288-22.365381h-89.447194c-12.348236 0-22.35924 10.011005-22.359241 22.365381 0 12.347213 10.011005 22.35924 22.359241 22.35924z" fill="#ff6600" p-id="5200"></path></svg>