<?xml version="1.0" standalone="no"?><!DOCTYPE svg PUBLIC "-//W3C//DTD SVG 1.1//EN" "http://www.w3.org/Graphics/SVG/1.1/DTD/svg11.dtd"><svg t="1523981374899" class="icon" style="" viewBox="0 0 1024 1024" version="1.1" xmlns="http://www.w3.org/2000/svg" p-id="765" xmlns:xlink="http://www.w3.org/1999/xlink" width="48" height="48"><defs><style type="text/css"></style></defs><path d="M500.92 308.92L386 404.71l-98-98-150.63 150.66 45.25 45.26L288 397.25l94 94 164.36-136.89L608 416V256H448zM640 64H128a64.19 64.19 0 0 0-64 64v768a64.19 64.19 0 0 0 64 64h444a289.06 289.06 0 0 1-82.6-64H128.11l-0.11-0.11V128.11l0.11-0.11h511.78l0.11 0.11v295a288.9 288.9 0 0 1 64-7.11V128a64.19 64.19 0 0 0-64-64zM446 576H160v64h263.15A285.9 285.9 0 0 1 446 576zM160 768h263.15a288.91 288.91 0 0 1-7.15-64H160z" p-id="766" fill="#ff6600"></path><path d="M704 448c-141.38 0-256 114.62-256 256s114.62 256 256 256 256-114.62 256-256-114.62-256-256-256z m160 197.55l-0.28 0.28-57.81 57.91-135.8 136L512 681.37l45.18-45.25 112.94 113.14 129.71-129.95 0.17-0.17 50.82-50.91 12.9 12.92 0.28 0.28 32 32.06z" p-id="767" fill="#ff6600"></path></svg>