<?xml version="1.0" standalone="no"?><!DOCTYPE svg PUBLIC "-//W3C//DTD SVG 1.1//EN" "http://www.w3.org/Graphics/SVG/1.1/DTD/svg11.dtd"><svg t="1523981982582" class="icon" style="" viewBox="0 0 1024 1024" version="1.1" xmlns="http://www.w3.org/2000/svg" p-id="7696" xmlns:xlink="http://www.w3.org/1999/xlink" width="48" height="48"><defs><style type="text/css"></style></defs><path d="M304 646.4 304 646.4 294.4 636.8ZM395.2 737.6c0 0-1.6-1.6-1.6-1.6 0 0-1.6-1.6-1.6-1.6L304 646.4 395.2 737.6zM876.8 252.8c-43.2-43.2-100.8-67.2-158.4-67.2-51.2 0-99.2 19.2-134.4 54.4L512 313.6 438.4 240c-76.8-76.8-208-70.4-291.2 12.8-40 40-64 92.8-67.2 147.2-3.2 56 16 107.2 54.4 144l220.8 220.8c0 1.6 1.6 1.6 1.6 1.6l9.6 9.6c0 0 0 0 1.6 1.6 0 0 1.6 1.6 1.6 1.6 6.4 6.4 11.2 11.2 17.6 16 1.6 1.6 3.2 3.2 4.8 4.8l0 0 0 0c0 0 0 0 0 0 1.6 0 1.6 1.6 3.2 1.6 0 0 0 0 1.6 0 1.6 0 1.6 1.6 3.2 1.6 1.6 0 1.6 1.6 3.2 1.6 6.4 3.2 12.8 8 19.2 11.2 0 0 1.6 1.6 1.6 1.6 3.2 1.6 4.8 3.2 8 3.2 0 0 1.6 0 1.6 0 0 0 1.6 0 1.6 0 28.8 12.8 70.4 20.8 120 8 0 0 0 0 0 0 1.6 0 4.8-1.6 6.4-1.6 1.6 0 1.6 0 3.2 0 0 0 1.6 0 1.6 0 1.6 0 3.2-1.6 6.4-1.6 0 0 1.6 0 1.6 0 30.4-11.2 64-32 99.2-64L889.6 544c36.8-38.4 56-89.6 54.4-144C940.8 345.6 916.8 292.8 876.8 252.8zM472 552l163.2 166.4c0 0 0 0 0 1.6 0 1.6 0 1.6-1.6 3.2 0 1.6 0 1.6-1.6 3.2-3.2 4.8-6.4 12.8-14.4 20.8L449.6 574.4c-8-8-20.8-8-28.8 0-8 8-8 20.8 0 28.8l163.2 168c-11.2 6.4-22.4 9.6-33.6 12.8l0 0-153.6-156.8c-8-8-20.8-8-28.8 0-8 8-8 20.8 0 28.8l131.2 134.4c-19.2-1.6-38.4-4.8-54.4-12.8-6.4-3.2-12.8-6.4-19.2-11.2 0 0 0 0 0 0-3.2-1.6-6.4-4.8-9.6-8-3.2-3.2-6.4-6.4-9.6-9.6l-3.2-3.2c0 0 0 0 0 0-1.6-1.6-3.2-3.2-6.4-4.8 0 0-1.6-1.6-1.6-1.6 0 0-1.6-1.6-1.6-1.6L304 646.4l-9.6-9.6-126.4-126.4c-27.2-27.2-41.6-65.6-40-108.8 1.6-43.2 20.8-83.2 52.8-115.2 65.6-65.6 166.4-72 224-12.8l73.6 73.6-22.4 22.4-33.6 33.6 33.6 33.6 9.6 9.6 22.4 22.4 33.6 33.6 86.4 86.4c20.8 22.4 33.6 49.6 35.2 80l-142.4-144c-8-8-20.8-8-28.8 0C464 531.2 464 544 472 552zM856 510.4 691.2 675.2c0-44.8-17.6-88-49.6-120L550.4 464l43.2-43.2c9.6-9.6 9.6-24 0-33.6-9.6-9.6-24-9.6-33.6 0l-43.2 43.2-16-16-9.6-9.6 30.4-30.4 17.6-17.6 81.6-81.6c25.6-25.6 60.8-40 99.2-40 44.8 0 89.6 19.2 123.2 52.8 32 32 51.2 73.6 52.8 115.2C897.6 444.8 883.2 483.2 856 510.4z" p-id="7697" fill="#ff6600"></path></svg>